<?xml version="1.0" standalone="no"?>
<!DOCTYPE svg PUBLIC "-//W3C//DTD SVG 20010904//EN"
 "http://www.w3.org/TR/2001/REC-SVG-20010904/DTD/svg10.dtd">
<svg version="1.0" xmlns="http://www.w3.org/2000/svg"
 width="200.000000pt" height="200.000000pt" viewBox="0 0 200.000000 200.000000"
 preserveAspectRatio="xMidYMid meet">

<g transform="translate(0.000000,200.000000) scale(0.100000,-0.100000)"
fill="#000000" stroke="none">
<path d="M1315 1665 c-56 -55 -16 -145 63 -145 51 0 82 32 82 84 0 50 -36 86
-85 86 -25 0 -44 -8 -60 -25z"/>
<path d="M875 1655 c-362 -67 -603 -423 -531 -785 28 -137 82 -238 185 -341
70 -70 103 -94 171 -127 360 -173 778 -11 923 358 24 63 50 190 38 190 -3 -1
-17 -7 -31 -15 -84 -48 -217 17 -236 115 -5 24 -11 29 -23 24 -50 -21 -89 -33
-109 -34 -49 0 -113 24 -153 58 -83 71 -102 176 -50 275 l29 55 -29 12 c-67
28 -111 120 -92 191 12 45 16 44 -92 24z m-65 -331 c55 -53 13 -144 -66 -144
-92 0 -116 128 -31 165 38 17 64 11 97 -21z m-180 -328 c0 -6 -8 -16 -19 -23
-16 -10 -23 -6 -53 25 -62 67 -63 70 -42 93 l19 21 48 -53 c26 -29 47 -58 47
-63z m383 23 c8 -13 2 -28 -29 -67 -42 -55 -54 -61 -78 -36 -15 14 -12 20 26
70 43 55 62 63 81 33z m-225 -175 c48 -33 17 -114 -44 -114 -23 0 -64 42 -64
65 0 23 41 65 64 65 12 0 32 -7 44 -16z m559 -45 c29 -23 53 -45 53 -49 0 -4
-8 -14 -18 -23 -17 -16 -22 -15 -72 23 -29 21 -55 41 -57 44 -8 7 17 46 29 46
6 0 35 -19 65 -41z m-143 -94 c46 -42 29 -123 -31 -146 -66 -25 -139 48 -112
112 25 62 95 79 143 34z m-304 -100 c15 -18 10 -45 -12 -59 -35 -22 -74 27
-48 59 16 19 44 19 60 0z"/>
<path d="M1629 1538 c-10 -19 -8 -25 22 -51 63 -53 77 -61 94 -47 8 7 15 18
15 25 0 12 -99 95 -113 95 -3 0 -12 -10 -18 -22z"/>
<path d="M1206 1428 c-30 -39 -37 -55 -29 -67 19 -30 39 -22 82 36 39 53 41
58 25 70 -27 20 -36 16 -78 -39z"/>
<path d="M1554 1382 c-35 -5 -66 -46 -67 -87 -1 -30 5 -43 31 -66 18 -16 41
-29 53 -29 37 0 77 28 88 63 23 69 -32 131 -105 119z"/>
<path d="M1281 1254 c-26 -19 -27 -46 -1 -69 39 -35 92 17 62 61 -13 19 -39
23 -61 8z"/>
</g>
</svg>
