<svg xmlns="http://www.w3.org/2000/svg" viewBox="0 0 595.28 595.28"><defs><style>.cls-1{fill:#353a0a;}.cls-2{fill:#a1e340;}</style></defs><g id="Livello_1" data-name="Livello 1"><path class="cls-1" d="M341.42,276.74l.52-.75H305.28l-23,34.23c-1.08,1.73-3.12,5.39-4.93,8.62-1.22,2.2-2.48,4.45-3,5.32-.6-1-2.13-3.62-3.5-6-1.71-3-3.64-6.32-4.65-7.94l-23-34.22H206.81l49.13,72.51-52.09,76.33h36.24L263.9,391c1.32-2,4.1-6.61,6.56-10.69,1.62-2.69,3.29-5.47,3.91-6.43.58.92,2.07,3.44,3.51,5.9,2.39,4.07,5.37,9.15,6.77,11.23l23.8,33.8h36.24L292.6,348.5Z"/><polygon class="cls-1" points="366.1 424.83 396.44 394.32 396.44 275.99 366.1 275.99 366.1 424.83"/><path class="cls-2" d="M87.45,455.25v28h-6.6v-6.84c0-6.64.24-9.92.2-9.92h0s-2.28,3.84-2.52,4.24l-3.28,5.6H71.73l-3.28-5.6c-.24-.4-2.48-4.24-2.52-4.24h0s.2,3.28.2,9.92v6.84h-6.6v-28h6.32l5.24,8.48c2,3.32,2.36,4,2.4,4h0s.36-.72,2.4-4l5.24-8.48Z"/><path class="cls-2" d="M146.18,454.69a14.56,14.56,0,1,1-14.52,14.56A14.31,14.31,0,0,1,146.18,454.69Zm0,22.48c4.56,0,7.56-3.24,7.56-7.92s-3-7.92-7.56-7.92-7.52,3.2-7.52,7.92S141.66,477.17,146.18,477.17Z"/><path class="cls-2" d="M217.1,455.25c5,0,8.48,3.32,8.48,7.4a6,6,0,0,1-3.48,5.48v0a7.31,7.31,0,0,1,4.92,6.6c0,4.68-3.08,8.48-10,8.48H204.94v-28Zm-1.4,10.92c1.8,0,3.12-1.12,3.12-2.64s-1.32-2.64-3.12-2.64h-4v5.28Zm.64,11.44c2.24,0,3.64-1.32,3.64-3.16s-1.52-3.16-3.64-3.16h-4.68v6.32Z"/><path class="cls-2" d="M271.35,483.25v-28h6.72v28Z"/><path class="cls-2" d="M344.27,477v6.28h-20v-28H331V477Z"/><path class="cls-2" d="M388.2,483.25v-28h6.72v28Z"/><path class="cls-2" d="M462.08,455.25v6.28h-8.52v21.72h-6.72V461.53h-8.4v-6.28Z"/><path class="cls-2" d="M532.61,455.25l-10.72,15.6v12.4h-6.68v-12.4l-10.72-15.6H512l5.08,7.48a23.94,23.94,0,0,0,1.44,2h0a23.94,23.94,0,0,0,1.44-2l5.08-7.48Z"/><polygon class="cls-1" points="181.42 361.66 181.42 334.92 91.83 334.92 91.83 304.42 181.42 304.42 181.42 275.99 95.36 275.99 61.5 309.85 61.5 424.83 181.42 424.83 181.42 396.4 91.83 396.4 91.83 361.66 181.42 361.66"/><path class="cls-1" d="M486,336.43c-1.87-.64-3.73-1.26-5.56-1.87-15.77-5.25-29.39-9.78-29.39-20.07,0-8.79,8.93-14.93,21.7-14.93,11.88,0,25.42,6.8,28.89,22l.09.38,22.78-22.79C514.33,283.11,495.79,273,474.45,273c-30.6,0-54.56,19-54.56,43.15,0,27.26,24.92,36.27,39.82,41.65,3.44,1.22,6.86,2.33,10.17,3.41,17,5.55,30.49,9.94,30.49,22.12,0,10.49-9.26,17.26-23.6,17.26-18.55,0-29.89-12.75-32.9-25.4l-.1-.41-22.95,22.95c10.91,19.27,30.16,30,54.69,30,33.62,0,57.1-18.79,57.1-45.7C532.61,355.94,509.05,344.33,486,336.43Z"/><polygon class="cls-1" points="274 114.87 261.21 127.69 352.65 127.69 365.44 114.87 274 114.87"/><polygon class="cls-1" points="231.81 213.19 323.25 213.19 336.04 200.37 244.6 200.37 231.81 213.19"/><polygon class="cls-2" points="288.33 157.7 275.54 170.52 309.1 170.52 321.89 157.7 288.33 157.7"/></g></svg>